<?xml version="1.0" encoding="utf-8"?>
<!-- Generator: Adobe Illustrator 16.0.0, SVG Export Plug-In . SVG Version: 6.00 Build 0)  -->
<!DOCTYPE svg PUBLIC "-//W3C//DTD SVG 1.1//EN" "http://www.w3.org/Graphics/SVG/1.1/DTD/svg11.dtd">
<svg version="1.1" id="Layer_1" xmlns="http://www.w3.org/2000/svg" xmlns:xlink="http://www.w3.org/1999/xlink" x="0px" y="0px"
	 width="372.333px" height="35.667px" viewBox="0 0 372.333 35.667" enable-background="new 0 0 372.333 35.667"
	 xml:space="preserve">
<g>
	<g>
		<path fill="#FFFFFF" d="M362.887,8.946c0-0.423,0.141-0.706,0.281-1.129c0.141-0.281,0.283-0.705,0.562-0.846
			c0.283-0.282,0.564-0.424,0.85-0.564c0.281-0.141,0.703-0.281,1.129-0.281c0.422,0,0.705,0,1.127,0.281
			c0.283,0.141,0.707,0.424,0.848,0.564c0.281,0.281,0.424,0.564,0.564,0.846c0.141,0.282,0.279,0.706,0.279,1.129
			c0,0.424-0.141,0.706-0.279,1.129c-0.143,0.282-0.426,0.706-0.564,0.846c-0.283,0.283-0.564,0.424-0.848,0.564
			s-0.705,0.282-1.127,0.282c-0.426,0-0.707-0.142-1.129-0.282c-0.283-0.141-0.707-0.281-0.85-0.564
			c-0.281-0.281-0.424-0.563-0.562-0.846C363.028,9.651,362.887,9.37,362.887,8.946z M363.028,8.946c0,0.424,0,0.706,0.281,0.988
			c0.145,0.281,0.283,0.564,0.564,0.847s0.562,0.423,0.848,0.563c0.283,0.142,0.705,0.283,1.129,0.283
			c0.422,0,0.705-0.142,0.986-0.283c0.283-0.141,0.562-0.281,0.848-0.563c0.281-0.282,0.424-0.563,0.564-0.847
			c0.141-0.282,0.279-0.706,0.279-0.988c0-0.423,0-0.706-0.279-1.129c-0.143-0.281-0.283-0.564-0.564-0.846
			c-0.283-0.282-0.562-0.424-0.848-0.564c-0.283-0.141-0.705-0.141-0.986-0.141c-0.424,0-0.705,0.141-1.129,0.141
			c-0.283,0.141-0.564,0.282-0.848,0.564c-0.283,0.281-0.422,0.564-0.564,0.846C363.168,8.24,363.028,8.523,363.028,8.946z
			 M366.979,10.499L366.979,10.499C366.836,10.499,366.836,10.499,366.979,10.499c-0.143-0.142-0.143-0.142-0.283-0.142h-0.141
			h-0.141c0,0-0.145,0-0.283,0c-0.143,0-0.143,0-0.281,0c-0.143,0-0.424,0-0.564-0.142c-0.141-0.141-0.424-0.141-0.562-0.281
			c-0.141-0.141-0.283-0.282-0.424-0.564c-0.143-0.141-0.143-0.423-0.143-0.705c0-0.283,0-0.424,0.143-0.707
			c0.141-0.281,0.141-0.422,0.283-0.563c0.141-0.142,0.279-0.282,0.562-0.423c0.141-0.141,0.422-0.141,0.705-0.141
			c0.141,0,0.141,0,0.281,0s0.141,0,0.141,0h0.145h0.141h0.141c0,0,0,0,0.143,0h0.143v0.986l0,0c0-0.141,0-0.281-0.143-0.423
			c0-0.142-0.143-0.142-0.143-0.282s-0.141-0.141-0.279-0.141c-0.145,0-0.283-0.141-0.426-0.141c-0.279,0-0.424,0-0.562,0.141
			c-0.141,0.141-0.281,0.281-0.281,0.423c-0.143,0.142-0.143,0.282-0.143,0.563c0,0.142,0,0.424,0,0.564
			c0,0.281,0,0.564,0.143,0.848c0,0.141,0.141,0.422,0.281,0.563c0.141,0.141,0.283,0.141,0.283,0.282
			c0.141,0,0.281,0.141,0.422,0.141c0.143,0,0.424,0,0.562-0.141c0.143,0,0.283-0.142,0.283-0.282
			c0.143-0.142,0.143-0.142,0.143-0.282s0-0.281,0.141-0.281l0,0v1.129H366.979z"/>
	</g>
	<g>
		<path fill="#FFFFFF" d="M3.804,12.191l1.693-8.89l0.987,0.283c0.847,0.141,1.552,0.281,2.399,0.281
			c0.846,0,1.693,0.143,2.822,0.143h11.146c1.411,0,2.54,0,3.386-0.143c0.847-0.141,1.834-0.281,2.963-0.564l1.834,8.89
			l-1.693,0.563l-0.423-1.27c-1.552-3.811-4.092-5.645-7.478-5.645l-1.27,0.142v23.985l2.681,0.283v1.834H11.563V30.25l2.822-0.283
			V5.982L13.257,5.84c-1.693,0-3.104,0.424-4.374,1.412c-1.27,0.986-2.117,1.834-2.54,2.963c-0.423,0.986-0.705,1.693-0.705,1.834
			c-0.141,0.281-0.141,0.423-0.282,0.705L3.804,12.191z"/>
		<path fill="#FFFFFF" d="M31.317,5.842V4.572l7.76-1.834L38.794,4.29v11.428l1.27-0.986l1.27-0.846
			c1.411-0.707,2.681-1.129,4.092-1.129c1.552,0,2.822,0.422,3.951,1.41c1.129,0.846,1.693,2.115,1.976,3.668v1.553V30.25
			l1.975,0.281v1.553h-9.03v-1.553l1.834-0.281V19.81V18.54c-0.141-0.846-0.564-1.553-1.27-2.115
			c-0.705-0.563-1.552-0.848-2.54-0.848c-0.564,0-1.129,0.141-1.552,0.281c-0.423,0.143-0.847,0.424-1.129,0.564
			c-0.282,0.141-0.564,0.422-0.847,0.705v13.121l1.834,0.282v1.552H31.74v-1.552l1.976-0.282v-0.847V8.661
			c0-0.847-0.141-1.552-0.423-1.975c-0.282-0.424-0.847-0.706-1.552-0.706h-0.423L31.317,5.842L31.317,5.842z"/>
		<path fill="#FFFFFF" d="M73.645,20.374L61.088,23.76c0,0.564,0.141,0.988,0.141,1.271c0.141,0.283,0.282,0.849,0.564,1.693
			c0.282,0.848,0.987,1.553,1.834,2.258c0.988,0.705,1.975,0.987,3.104,0.987c1.552,0,2.822-0.424,3.668-1.271
			c0.847-0.846,1.411-1.41,1.834-1.977l1.411,1.131c-1.552,2.68-3.245,4.092-5.079,4.514c-1.976,0.424-3.245,0.564-3.951,0.564
			c-2.681,0-4.938-0.848-6.631-2.682c-1.693-1.834-2.54-4.093-2.54-6.914c0-2.82,0.847-5.078,2.399-6.912
			c1.552-1.834,3.104-2.822,4.656-3.104c1.552-0.142,2.54-0.282,3.104-0.282c4.233,0,6.914,2.258,8.042,6.914L73.645,20.374
			L73.645,20.374z M60.947,22.067l5.22-1.41c1.27-0.424,1.976-1.129,1.976-2.541c0-0.141,0-0.422-0.141-0.986
			c0-0.563-0.141-0.987-0.423-1.412c-0.141-0.422-0.564-0.846-0.988-1.127c-0.423-0.282-0.988-0.424-1.552-0.424
			s-1.27,0.142-1.834,0.564c-0.706,0.422-1.129,1.129-1.693,2.115c-0.423,0.988-0.706,2.259-0.706,3.951L60.947,22.067z"/>
		<path fill="#FFFFFF" d="M86.908,23.901l1.693-0.564l0.423,1.129c0.846,1.978,1.975,3.388,3.386,4.517
			c1.27,0.987,2.54,1.692,3.81,1.834c1.128,0.142,1.975,0.283,2.54,0.283c1.834,0,3.245-0.425,4.374-1.412
			c1.128-0.988,1.693-2.115,1.693-3.526c0-0.988-0.423-1.976-1.129-2.681c-0.846-0.707-2.116-1.554-4.091-2.259l-4.374-1.692
			l-1.27-0.424c-0.846-0.424-1.693-0.705-2.116-0.987c-0.564-0.281-1.129-0.705-1.693-1.271c-0.705-0.562-1.128-1.27-1.552-2.256
			c-0.423-0.987-0.706-1.976-0.706-3.104c0-1.271,0.282-2.397,0.847-3.526c0.564-1.129,1.27-2.117,2.257-2.822
			c0.847-0.706,1.834-1.129,2.822-1.553c0.988-0.281,1.976-0.422,3.104-0.422c0.564,0,1.129,0,1.834,0.141s1.411,0.141,2.116,0.423
			l0.847,0.142c0.282,0.141,0.564,0.141,0.847,0.141c0.706,0,1.693-0.141,2.54-0.563l0.564-0.282l1.975,8.184l-1.693,0.564
			l-0.564-1.129c-0.988-1.693-1.975-3.104-3.104-3.951c-1.129-0.988-2.116-1.41-3.104-1.693c-0.988-0.141-1.693-0.281-2.117-0.281
			c-0.987,0-1.834,0.141-2.681,0.564c-0.847,0.281-1.411,0.847-1.975,1.551c-0.423,0.705-0.706,1.412-0.706,2.258
			s0.141,1.552,0.706,2.115c0.423,0.564,0.987,0.988,1.411,1.271c0.564,0.282,1.552,0.706,2.963,1.271l4.092,1.552
			c2.963,1.129,5.08,2.258,6.349,3.668c1.27,1.412,1.976,2.963,1.976,4.797c0,0.849-0.141,1.978-0.564,3.388
			c-0.423,1.409-1.411,2.682-3.245,3.811c-1.693,1.129-3.951,1.691-6.772,1.691c-1.411,0-2.822-0.142-4.515-0.422l-0.706-0.144
			l-0.423-0.142c-0.423-0.141-0.847-0.141-1.411-0.141c-0.847,0-1.552,0.141-2.398,0.562l-0.706,0.281L86.908,23.901z"/>
		<path fill="#FFFFFF" d="M110.33,15.153v-1.551h3.386V7.676l5.22-1.693v7.619h4.797v1.551h-4.797v11.57v1.129
			c0.141,0.705,0.282,1.27,0.847,1.691c0.423,0.424,0.988,0.705,1.693,0.705c0.423,0,0.847,0,1.27-0.142
			c0.282-0.142,0.564-0.282,0.847-0.424c0.141-0.142,0.423-0.281,0.564-0.425l0.705,1.412c-0.987,0.847-2.116,1.41-3.104,1.691
			c-1.128,0.283-1.975,0.424-2.822,0.424c-1.552,0-2.822-0.424-3.668-1.41c-0.847-0.988-1.27-2.117-1.27-3.811V15.149h-3.668V15.153
			L110.33,15.153z"/>
		<path fill="#FFFFFF" d="M125.144,22.631c0-2.821,0.706-5.078,2.258-6.771c1.552-1.692,3.104-2.683,4.515-2.963
			c1.552-0.142,2.399-0.282,2.681-0.282s0.423,0,0.705,0c0.282,0,0.564,0,0.988,0c0.282,0,1.129,0.141,2.54,0.282
			c1.411,0.142,2.822,1.129,4.374,2.963c1.552,1.692,2.398,4.093,2.398,6.771c0,2.822-0.705,5.08-2.257,6.771
			c-1.552,1.836-3.104,2.822-4.656,2.965c-1.552,0.141-2.681,0.281-3.104,0.281c-0.564,0-1.552-0.143-3.104-0.281
			c-1.552-0.143-3.104-1.129-4.656-2.965C125.85,27.711,125.144,25.454,125.144,22.631z M130.506,22.631
			c0,1.554,0.141,2.822,0.423,3.951c0.282,1.129,0.705,2.115,1.411,3.104s1.693,1.412,2.822,1.412c1.27,0,2.117-0.563,2.822-1.412
			c0.705-0.988,1.128-1.976,1.411-3.104c0.283-1.129,0.423-2.397,0.423-3.951c0-1.551-0.141-2.821-0.423-3.951
			c-0.282-1.127-0.706-2.114-1.411-3.104c-0.706-0.988-1.693-1.41-2.822-1.41c-1.27,0-2.116,0.422-2.822,1.41
			s-1.128,1.977-1.411,3.104C130.646,19.81,130.506,21.081,130.506,22.631z"/>
		<path fill="#FFFFFF" d="M147.296,15.437v-1.128l6.208-1.553l0.141,0.564l0.141,0.564c0.282,0.705,0.423,1.27,0.564,1.832
			c0.141,0.563,0.282,1.271,0.282,1.979v1.551c0.282-1.129,0.564-2.115,1.27-3.104c0.564-0.848,1.129-1.553,1.693-2.117
			s1.129-0.848,1.552-1.129c0.564-0.282,0.988-0.282,1.411-0.282c1.129,0,1.834,0.282,1.976,0.988
			c0.282,0.706,0.423,1.128,0.423,1.411c0,0.988-0.282,1.693-0.987,1.834c-0.564,0.143-1.129,0.283-1.411,0.283
			c-0.282,0-0.706,0-1.129-0.144c-0.423-0.142-0.705-0.28-0.987-0.563l-0.423-0.281c-0.564,0.564-0.988,1.129-1.411,1.834
			c-0.423,0.705-0.846,1.693-1.27,2.822c-0.424,1.129-0.564,2.258-0.564,3.526v5.644l1.834,0.283v1.551h-8.748v-1.551l1.975-0.283
			v-0.846v-8.043v-1.129c0-1.693-0.282-2.82-0.706-3.527C148.707,15.717,148.001,15.437,147.296,15.437z"/>
		<path fill="#FFFFFF" d="M163.24,15.717V14.59l6.631-1.834c0.564,0.988,0.706,1.975,0.706,2.822
			c0.564-0.707,1.411-1.271,2.54-1.976c1.128-0.563,2.257-0.988,3.668-0.988c1.129,0,2.117,0.282,3.104,0.847
			c0.986,0.564,1.551,1.271,1.975,2.258c0.564-0.705,1.27-1.271,2.115-1.692c0.707-0.423,1.412-0.706,2.259-0.987
			c0.706-0.142,1.411-0.283,2.116-0.283c1.412,0,2.682,0.424,3.811,1.271s1.693,1.692,1.834,2.681
			c0.143,0.988,0.281,1.693,0.281,2.258v11.146l1.836,0.281v1.553h-8.891v-1.553l1.834-0.281V19.811
			c0-1.693-0.422-2.965-1.271-3.387c-0.846-0.564-1.551-0.848-2.257-0.848c-0.848,0-1.693,0.282-2.54,0.848l-0.706,0.563
			l0.141,0.423l0.142,0.424v1.271v11.287l1.834,0.281v1.553h-8.89v-1.553l1.834-0.281V19.528V18.54
			c-0.141-0.986-0.563-1.693-1.127-2.258c-0.564-0.564-1.412-0.846-2.258-0.846c-0.564,0-1.27,0.141-1.834,0.422
			c-0.564,0.283-1.129,0.707-1.411,1.129V30.11l1.834,0.281v1.553h-8.889v-1.553l1.834-0.281v-0.85V18.399c0-0.564,0-0.988,0-1.271
			s-0.282-0.562-0.564-0.986c-0.282-0.426-0.706-0.564-1.129-0.564h-0.564v0.141H163.24L163.24,15.717z"/>
		<path fill="#FFFFFF" d="M208.108,31.944V30.11h0.564c1.129,0,1.975-0.283,2.397-0.85c0.422-0.562,0.704-1.551,0.704-2.963v-0.562
			V7.958l-0.424-0.563c-0.846-0.987-1.977-1.552-3.104-1.692V4.008h8.748l14.394,20.882V9.934V8.805V8.665V8.241
			c-0.144-0.986-0.424-1.552-0.849-1.975c-0.424-0.424-1.129-0.564-1.976-0.564H228V4.008h8.89v1.693h-0.562
			c-0.988,0-1.555,0.141-1.977,0.564c-0.424,0.423-0.707,0.988-0.849,1.975v0.562v0.564v0.706v22.011h-4.373L213.891,9.792v16.084
			v0.707v0.563l0.143,0.563c0.141,0.846,0.424,1.551,0.848,1.976c0.422,0.424,1.127,0.563,2.115,0.563h0.562v1.834h-9.453
			L208.108,31.944L208.108,31.944z"/>
		<path fill="#FFFFFF" d="M256.221,20.374l-12.56,3.246c0,0.564,0.142,0.986,0.142,1.271c0.143,0.28,0.282,0.846,0.563,1.692
			c0.282,0.846,0.987,1.553,1.836,2.258c0.985,0.705,1.976,0.986,3.104,0.986c1.553,0,2.822-0.424,3.668-1.27
			c0.848-0.848,1.41-1.41,1.834-1.977l1.412,1.129c-1.554,2.682-3.246,4.092-5.08,4.516c-1.976,0.424-3.246,0.562-3.951,0.562
			c-2.68,0-4.938-0.847-6.771-2.681c-1.693-1.834-2.539-4.092-2.539-6.914c0-2.821,0.846-5.08,2.397-6.914
			c1.551-1.833,3.104-2.819,4.655-3.104c1.552-0.141,2.539-0.281,3.104-0.281c4.23,0,6.912,2.256,8.041,6.912L256.221,20.374z
			 M243.522,22.067l5.221-1.41c1.271-0.424,1.977-1.129,1.977-2.541c0-0.141,0-0.422-0.143-0.986c0-0.563-0.141-0.987-0.424-1.412
			c-0.141-0.422-0.562-0.846-0.986-1.127c-0.424-0.282-0.986-0.424-1.553-0.424c-0.564,0-1.27,0.142-1.834,0.564
			c-0.705,0.422-1.129,1.129-1.691,2.115c-0.426,0.988-0.705,2.259-0.705,3.951v1.271L243.522,22.067L243.522,22.067z"/>
		<path fill="#FFFFFF" d="M257.067,15.153v-1.551h3.387V7.676l5.223-1.693v7.619h4.797v1.551h-4.797v11.57v1.129
			c0.141,0.705,0.279,1.27,0.846,1.691c0.425,0.424,0.988,0.705,1.693,0.705c0.424,0,0.846,0,1.271-0.142
			c0.282-0.142,0.563-0.282,0.848-0.424c0.142-0.142,0.423-0.281,0.562-0.425l0.707,1.412c-0.987,0.847-2.117,1.41-3.104,1.691
			c-1.129,0.283-1.976,0.424-2.819,0.424c-1.554,0-2.822-0.424-3.67-1.41c-0.847-0.988-1.271-2.117-1.271-3.811V15.149h-3.671
			V15.153L257.067,15.153z"/>
		<path fill="#FFFFFF" d="M269.766,14.731l6.771-2.116l4.517,14.109l4.231-13.687h2.681l4.375,14.109l2.539-6.771l0.705-1.834
			v-0.143l0.143-0.562c-0.988-0.143-1.553-0.563-1.836-1.129c-0.281-0.566-0.422-1.129-0.422-1.693c0-0.705,0.281-1.411,0.705-1.834
			c0.424-0.424,0.988-0.706,1.553-0.706c0.705,0,1.41,0.282,1.834,0.847c0.422,0.564,0.705,1.27,0.705,1.833
			c0,0.707-0.283,1.692-0.705,2.964l-0.988,2.682L292.2,31.805h-3.67l-3.809-12.273l-3.951,12.273h-3.385l-4.232-13.264
			c-0.283-0.986-0.707-1.691-1.131-2.115c-0.422-0.424-0.986-0.707-1.551-0.707c-0.283,0-0.424,0-0.424,0L269.766,14.731z"/>
		<path fill="#FFFFFF" d="M299.819,22.631c0-2.821,0.705-5.078,2.256-6.771c1.555-1.692,3.105-2.683,4.518-2.963
			c1.553-0.142,2.396-0.282,2.682-0.282c0.283,0,0.422,0,0.705,0c0.281,0,0.564,0,0.986,0c0.283,0,1.129,0.141,2.541,0.282
			c1.41,0.142,2.82,1.129,4.373,2.963c1.553,1.692,2.258,4.093,2.258,6.771c0,2.822-0.705,5.08-2.258,6.771
			c-1.553,1.836-3.104,2.822-4.656,2.965c-1.551,0.141-2.68,0.281-3.104,0.281c-0.562,0-1.553-0.143-3.104-0.281
			c-1.551-0.143-3.104-1.129-4.656-2.965C300.524,27.711,299.819,25.454,299.819,22.631z M305.321,22.631
			c0,1.554,0.143,2.822,0.426,3.951c0.279,1.129,0.703,2.115,1.408,3.104c0.705,0.987,1.693,1.412,2.822,1.412
			c1.271,0,2.115-0.563,2.822-1.412c0.705-0.988,1.129-1.976,1.41-3.104c0.279-1.129,0.424-2.397,0.424-3.951
			c0-1.551-0.145-2.821-0.424-3.951c-0.281-1.127-0.705-2.114-1.41-3.104c-0.707-0.988-1.693-1.41-2.822-1.41
			s-2.117,0.422-2.822,1.41s-1.129,1.977-1.408,3.104C305.461,19.81,305.321,21.081,305.321,22.631z"/>
		<path fill="#FFFFFF" d="M321.969,15.437v-1.128l6.209-1.553l0.141,0.564l0.143,0.564c0.281,0.705,0.424,1.27,0.562,1.832
			c0.143,0.563,0.143,1.271,0.283,1.979v1.551c0.281-1.129,0.705-2.115,1.27-3.104c0.564-0.848,1.131-1.553,1.693-2.117
			c0.564-0.564,0.986-0.848,1.551-1.129c0.566-0.282,0.988-0.282,1.412-0.282c1.129,0,1.834,0.282,1.977,0.988
			c0.281,0.706,0.424,1.128,0.424,1.411c0,0.988-0.283,1.693-0.988,1.834c-0.562,0.143-1.129,0.283-1.41,0.283s-0.705,0-1.129-0.144
			c-0.424-0.142-0.705-0.28-0.986-0.563l-0.426-0.281c-0.562,0.564-0.984,1.129-1.41,1.834c-0.424,0.705-0.846,1.693-1.27,2.822
			s-0.564,2.258-0.564,3.526v5.644l1.834,0.283v1.551h-8.889v-1.551l1.977-0.283v-0.846v-8.043v-1.129
			c0-1.693-0.281-2.82-0.705-3.527C323.381,15.717,322.674,15.437,321.969,15.437z"/>
		<path fill="#FFFFFF" d="M337.631,5.842V4.572l7.76-1.834L345.11,4.29v18.203l1.127-1.412c0.564-0.705,0.988-1.41,1.555-1.977
			c0.424-0.562,1.129-1.41,2.115-2.396c0.986-0.988,1.834-1.834,2.682-2.541c0.848-0.705,1.412-0.988,1.834-1.129
			c0.424-0.141,0.707-0.141,0.988-0.141c0.141,0,0.424,0,0.562,0c0.846,0,1.553,0.281,1.975,0.706
			c0.426,0.423,0.707,0.987,0.707,1.692c0,0.564-0.281,1.129-0.707,1.554c-0.422,0.424-1.129,0.563-1.834,0.563
			c-0.562,0-0.984-0.143-1.551-0.281c-0.562-0.143-0.988-0.563-1.271-1.271l-0.281,0.281c-0.283,0.141-0.424,0.424-0.705,0.705
			c-0.283,0.283-0.564,0.424-0.705,0.705l-0.562,0.705l7.477,12.274l1.977,0.283v1.551h-9.596v-1.551l1.553-0.283l-4.797-8.185
			l-2.396,2.964v5.221l1.834,0.283v1.551h-8.891v-1.551l1.977-0.283v-0.985V8.803c0-0.846-0.143-1.551-0.424-1.975
			c-0.281-0.423-0.848-0.705-1.553-0.705h-0.562V5.84h-0.004V5.842z"/>
	</g>
</g>
</svg>
